<svg width="665" height="141" viewBox="0 0 665 141" fill="none" xmlns="http://www.w3.org/2000/svg">
<path d="M174.067 2.93334L167 5.06667V62.1333V119.333H175H183V60C183 27.3333 182.6 0.666671 182.067 0.800004C181.4 0.800004 177.8 1.86667 174.067 2.93334Z" fill="white"/>
<path d="M539.4 2.93334L532.333 5.06667V62.1333V119.333H540.333H548.333V60C548.333 27.3333 547.933 0.666671 547.4 0.800004C546.733 0.800004 543.133 1.86667 539.4 2.93334Z" fill="white"/>
<path d="M407.267 11.7333C401.4 17.8667 405.4 27.3333 413.667 27.3333C415.933 27.3333 418.867 26.1333 420.333 24.6667C421.8 23.2 423 20.2667 423 18C423 9.60001 413 5.60001 407.267 11.7333Z" fill="white"/>
<path d="M42.2 13.6C41.8 14.9334 39.9333 20 38.2 24.8L34.8666 33.6L39.4 46.8C45.2666 63.6 51.6666 80.9334 60.0666 102L66.6 118.667L76.2 119.067C81.4 119.333 85.6666 118.933 85.6666 118.4C85.6666 117.733 82.6 109.467 78.8666 100C75.2666 90.4 70.4666 78.1334 68.4666 72.6667C59.2666 47.3334 44.8666 11.3334 43.9333 11.3334C43.4 11.3334 42.6 12.4 42.2 13.6Z" fill="white"/>
<path d="M627.267 40.9333L616.2 52L620.2 52.4L624.333 52.8V80.6667C624.333 96 624.867 110 625.667 111.867C628.867 120.4 644.733 122.933 656.333 116.667L662.333 113.467L654.333 112.533C648.067 111.867 645.8 110.933 643.4 108.133C640.467 104.667 640.333 103.733 640.333 78.5333V52.6667H651.533C662.333 52.6667 664.333 51.8667 664.333 47.8667C664.333 47.6 659 47.3333 652.333 47.3333H640.333V38.6667C640.333 33.8667 639.933 30 639.267 30C638.733 30 633.267 34.9333 627.267 40.9333Z" fill="white"/>
<path d="M509 48.6666C502.6 50.9333 502.467 51.0666 505.667 52.2666C514.333 55.7333 514.6 55.7333 515.4 51.0666C515.667 48.6666 515.933 46.5333 515.8 46.5333C515.8 46.4 512.733 47.4666 509 48.6666Z" fill="white"/>
<path d="M568.733 48.6667C562.2 52 558.6 55.6 562.867 54.4C567.4 53.2 575.133 55.3333 578.467 58.6667C581.667 61.8667 581.667 62.1333 581.667 90.6667V119.333H589.667H597.667L597.533 90.9333C597.4 60 596.467 53.8667 590.733 49.6C585.4 45.6 575.533 45.2 568.733 48.6667Z" fill="white"/>
<path d="M112.067 49.7333L105.667 51.8667V85.6V119.333H112.867H119.933L120.867 111.2C121.267 106.667 121.667 90.4 121.667 75.2C121.667 53.7333 121.267 47.3333 120.067 47.4667C119.133 47.4667 115.533 48.5333 112.067 49.7333Z" fill="white"/>
<path d="M135.133 50.8C133.533 52.8 132.333 55.0666 132.333 56C132.333 56.9333 133.533 59.2 135.133 61.2C140.6 68.1333 151 64.5333 151 55.7333C151 47.4666 140.333 44.1333 135.133 50.8Z" fill="white"/>
<path d="M209 50.6667C208.6 52.5333 208.067 55.6 207.667 57.4667C206.867 60.8 207.4 60.5333 214.333 54.6667C218.333 51.2 221.667 48.1333 221.667 47.8667C221.667 47.6 219 47.3333 215.667 47.3333C210.333 47.3333 209.667 47.7333 209 50.6667Z" fill="white"/>
<path d="M239 48.5333C239 49.2 244.333 63.2 250.867 79.6C257.267 95.8667 263 110.933 263.533 112.933C263.933 115.067 264.867 116.667 265.533 116.667C266.867 116.667 272.867 101.067 272.733 98C272.6 96.9333 270.467 90.5333 267.933 84C265.533 77.3333 261.4 66.4 259 59.6L254.467 47.3333H246.733C242.467 47.3333 239 47.8667 239 48.5333Z" fill="white"/>
<path d="M276.333 48.2667C276.333 48.8 279.8 58.2667 284.2 69.3333C288.467 80.2667 294.333 95.4667 297.133 102.933C299.933 110.533 302.733 116.667 303.267 116.667C303.667 116.667 305.667 112.667 307.533 107.6L311 98.6667L301.267 73.3333L291.667 48L283.933 47.6C279.8 47.3333 276.333 47.6 276.333 48.2667Z" fill="white"/>
<path d="M314.2 49.6C314.6 50.9333 316.067 54.8 317.4 58.4L319.8 64.6667L322.867 57.7333C324.6 53.8667 326.333 49.8667 326.6 48.9333C327.133 47.7333 325.4 47.3333 320.333 47.3333C314.467 47.3333 313.533 47.6 314.2 49.6Z" fill="white"/>
<path d="M349.667 49.7333L343.667 52.1333L343.267 85.7333L343 119.333H351H359V83.3333C359 55.3333 358.6 47.3333 357.4 47.4667C356.467 47.4667 353 48.5333 349.667 49.7333Z" fill="white"/>
<path d="M373.133 50.2667C368.467 56.8 372.2 64.6667 379.8 64.6667C385.267 64.6667 389.667 60.8 389.667 56C389.667 48.1333 377.533 44 373.133 50.2667Z" fill="white"/>
<path d="M412.733 49.6L405.667 51.7333V85.4667V119.333H413.667H421.667V83.3333C421.667 63.4667 421.267 47.3333 420.733 47.4667C420.067 47.4667 416.467 48.5333 412.733 49.6Z" fill="white"/>
<path d="M453.667 50C443 55.6 437.533 66.4 440.333 76.4C441.8 81.8667 444.867 85.3334 452.333 89.8667C459.533 94.1334 460.6 93.4667 457.4 86.2667C453.4 77.4667 453.267 60.8 457.267 52.9334C460.333 46.6667 460.2 46.5334 453.667 50Z" fill="white"/>
<path d="M481.933 51.6C484.6 55.3333 485 58 485.4 69.7333C485.8 81.6 485.533 84 483.133 88C479.667 93.8667 481.667 94 489.933 88.4C497.933 82.9333 500.867 76.6667 500.067 67.3333C499.267 59.6 495.133 54.2667 486.733 49.8667C479.667 46.2667 478.333 46.6667 481.933 51.6Z" fill="white"/>
<path d="M195.8 77.8666L190.467 83.3333L193.267 86.2666C194.733 88 198.867 93.8666 202.467 99.3333C216.467 121.333 214.333 119.333 223.133 119.333C227.533 119.333 231 119.067 231 118.667C231 118 207.8 82.1333 202.733 74.9333C201.133 72.6666 200.6 72.9333 195.8 77.8666Z" fill="white"/>
<path d="M5.79998 106.267C3.39998 111.6 1.13332 116.8 0.733316 117.6C0.199982 118.933 2.46665 119.333 9.66665 119.333C18.3333 119.333 19.1333 119.067 18.3333 116.933C17.8 115.733 15.9333 110.933 14.3333 106.267C12.6 101.6 11 97.6 10.7333 97.2C10.3333 96.9333 8.06665 100.933 5.79998 106.267Z" fill="white"/>
<path d="M442.6 107.2C437.8 112.933 437.8 119.067 442.467 123.467C445.933 126.667 446.2 126.667 469 126.267C491.533 125.867 492.067 125.867 495.667 129.067C498.2 131.2 499.4 133.6 499.533 136.533L499.667 140.8L502.733 137.333C504.333 135.467 505.667 132.267 505.8 130.267C506.467 113.333 501.533 110.533 472.467 111.733C453 112.533 449.133 111.733 447.267 106.267L446.2 102.933L442.6 107.2Z" fill="white"/>
</svg>
