<?xml version="1.0" standalone="no"?>
<!DOCTYPE svg PUBLIC "-//W3C//DTD SVG 20010904//EN"
 "http://www.w3.org/TR/2001/REC-SVG-20010904/DTD/svg10.dtd">
<svg version="1.0" xmlns="http://www.w3.org/2000/svg"
 width="500.000000pt" height="500.000000pt" viewBox="0 0 500.000000 500.000000"
 preserveAspectRatio="xMidYMid meet">

<g transform="translate(0.000000,500.000000) scale(0.100000,-0.100000)"
fill="#000000" stroke="none">
<path d="M1313 3013 l-53 -16 0 -428 0 -429 60 0 60 0 0 445 c0 245 -3 445 -7
444 -5 0 -32 -8 -60 -16z"/>
<path d="M4053 3013 l-53 -16 0 -428 0 -429 60 0 60 0 0 445 c0 245 -3 445 -7
444 -5 0 -32 -8 -60 -16z"/>
<path d="M3062 2947 c-44 -46 -14 -117 48 -117 17 0 39 9 50 20 11 11 20 33
20 50 0 63 -75 93 -118 47z"/>
<path d="M324 2933 c-3 -10 -17 -48 -30 -84 l-25 -66 34 -99 c44 -126 92 -256
155 -414 l49 -125 72 -3 c39 -2 71 1 71 5 0 5 -23 67 -51 138 -27 72 -63 164
-78 205 -69 190 -177 460 -184 460 -4 0 -10 -8 -13 -17z"/>
<path d="M4712 2728 l-83 -83 30 -3 31 -3 0 -209 c0 -115 4 -220 10 -234 24
-64 143 -83 230 -36 l45 24 -60 7 c-47 5 -64 12 -82 33 -22 26 -23 33 -23 222
l0 194 84 0 c81 0 96 6 96 36 0 2 -40 4 -90 4 l-90 0 0 65 c0 36 -3 65 -8 65
-4 0 -45 -37 -90 -82z"/>
<path d="M3825 2670 c-48 -17 -49 -18 -25 -27 65 -26 67 -26 73 9 2 18 4 34 3
34 0 1 -23 -7 -51 -16z"/>
<path d="M4273 2670 c-49 -25 -76 -52 -44 -43 34 9 92 -7 117 -32 24 -24 24
-26 24 -240 l0 -215 60 0 60 0 -1 213 c-1 232 -8 278 -51 310 -40 30 -114 33
-165 7z"/>
<path d="M848 2662 l-48 -16 0 -253 0 -253 54 0 53 0 7 61 c3 34 6 156 6 270
0 161 -3 209 -12 208 -7 0 -34 -8 -60 -17z"/>
<path d="M1021 2654 c-12 -15 -21 -32 -21 -39 0 -7 9 -24 21 -39 41 -52 119
-25 119 41 0 62 -80 87 -119 37z"/>
<path d="M1575 2655 c-3 -14 -7 -37 -10 -51 -6 -25 -2 -23 50 21 30 26 55 49
55 51 0 2 -20 4 -45 4 -40 0 -45 -3 -50 -25z"/>
<path d="M1800 2671 c0 -5 40 -110 89 -233 48 -122 91 -235 95 -250 3 -16 10
-28 15 -28 10 0 55 117 54 140 -1 8 -17 56 -36 105 -18 50 -49 132 -67 183
l-34 92 -58 0 c-32 0 -58 -4 -58 -9z"/>
<path d="M2080 2673 c0 -4 26 -75 59 -158 32 -82 76 -196 97 -252 21 -57 42
-103 46 -103 3 0 18 30 32 68 l26 67 -73 190 -72 190 -58 3 c-31 2 -57 0 -57
-5z"/>
<path d="M2364 2663 c3 -10 14 -39 24 -66 l18 -47 23 52 c13 29 26 59 28 66 4
9 -9 12 -47 12 -44 0 -51 -2 -46 -17z"/>
<path d="M2630 2662 l-45 -18 -3 -252 -2 -252 60 0 60 0 0 270 c0 210 -3 270
-12 269 -7 0 -33 -8 -58 -17z"/>
<path d="M2806 2658 c-35 -49 -7 -108 50 -108 41 0 74 29 74 65 0 59 -91 90
-124 43z"/>
<path d="M3103 2663 l-53 -16 0 -253 0 -254 60 0 60 0 0 270 c0 149 -3 270 -7
269 -5 0 -32 -8 -60 -16z"/>
<path d="M3410 2660 c-80 -42 -121 -123 -100 -198 11 -41 34 -67 90 -101 54
-32 62 -27 38 27 -30 66 -31 191 -1 250 23 47 22 48 -27 22z"/>
<path d="M3622 2648 c20 -28 23 -48 26 -136 3 -89 1 -107 -17 -137 -26 -44
-11 -45 51 -3 60 41 82 88 76 158 -6 58 -37 98 -100 131 -53 27 -63 24 -36
-13z"/>
<path d="M1476 2451 l-40 -41 21 -22 c11 -13 42 -57 69 -98 105 -165 89 -150
155 -150 33 0 59 2 59 5 0 5 -174 274 -212 328 -12 17 -16 15 -52 -22z"/>
<path d="M51 2238 c-18 -40 -35 -79 -38 -85 -4 -10 13 -13 67 -13 65 0 71 2
65 18 -4 9 -18 45 -30 80 -13 35 -25 65 -27 68 -3 2 -20 -28 -37 -68z"/>
<path d="M3327 2231 c-36 -43 -36 -89 -1 -122 26 -24 28 -24 199 -21 169 3
173 3 200 -21 19 -16 28 -34 29 -56 l1 -32 23 26 c12 14 22 38 23 53 5 127
-32 148 -250 139 -146 -6 -175 0 -189 41 l-8 25 -27 -32z"/>
</g>
</svg>
