<svg width="413" height="408" viewBox="0 0 413 408" fill="none" xmlns="http://www.w3.org/2000/svg">
<g filter="url(#filter0_d_3_2)">
<line x1="204.5" y1="81" x2="204.5" y2="147" stroke="black" stroke-width="5"/>
<line x1="181" y1="78.5" x2="228" y2="78.5" stroke="black" stroke-width="5"/>
<line x1="181" y1="144.5" x2="228" y2="144.5" stroke="black" stroke-width="5"/>
<line x1="204.5" y1="255" x2="204.5" y2="321" stroke="black" stroke-width="5"/>
<line x1="181" y1="253.5" x2="228" y2="253.5" stroke="black" stroke-width="5"/>
<line x1="181" y1="319.5" x2="228" y2="319.5" stroke="black" stroke-width="5"/>
<line x1="89.5" y1="158" x2="89.5" y2="235" stroke="black" stroke-width="5"/>
<line x1="129.5" y1="158" x2="129.5" y2="235" stroke="black" stroke-width="5"/>
<line x1="127" y1="195.5" x2="87" y2="195.5" stroke="black" stroke-width="5"/>
<path d="M202.091 220.636C199.03 220.636 196.394 220.076 194.182 218.955C191.97 217.833 190.265 216.295 189.068 214.341C187.871 212.386 187.273 210.152 187.273 207.636C187.273 205.697 187.682 203.977 188.5 202.477C189.333 200.962 190.477 199.561 191.932 198.273C193.402 196.97 195.091 195.667 197 194.364L203.727 189.364C205.045 188.5 206.098 187.576 206.886 186.591C207.689 185.606 208.091 184.318 208.091 182.727C208.091 181.545 207.568 180.402 206.523 179.295C205.492 178.189 204.136 177.636 202.455 177.636C201.273 177.636 200.227 177.939 199.318 178.545C198.424 179.136 197.72 179.894 197.205 180.818C196.705 181.727 196.455 182.667 196.455 183.636C196.455 184.727 196.75 185.833 197.341 186.955C197.947 188.061 198.712 189.197 199.636 190.364C200.576 191.515 201.545 192.697 202.545 193.909L223.909 220H217.455L199.818 198.727C198.182 196.758 196.697 194.97 195.364 193.364C194.03 191.758 192.97 190.174 192.182 188.614C191.394 187.053 191 185.364 191 183.545C191 181.455 191.462 179.621 192.386 178.045C193.326 176.455 194.636 175.22 196.318 174.341C198.015 173.447 200 173 202.273 173C204.606 173 206.614 173.455 208.295 174.364C209.977 175.258 211.273 176.447 212.182 177.932C213.091 179.402 213.545 181 213.545 182.727C213.545 184.955 212.992 186.886 211.886 188.523C210.78 190.159 209.273 191.682 207.364 193.091L198.091 200C196 201.545 194.583 203.045 193.841 204.5C193.098 205.955 192.727 207 192.727 207.636C192.727 209.091 193.106 210.447 193.864 211.705C194.621 212.962 195.689 213.977 197.068 214.75C198.447 215.523 200.061 215.909 201.909 215.909C203.667 215.909 205.379 215.538 207.045 214.795C208.712 214.038 210.22 212.947 211.568 211.523C212.932 210.098 214.008 208.386 214.795 206.386C215.598 204.386 216 202.136 216 199.636H221.182C221.182 202.727 220.826 205.25 220.114 207.205C219.402 209.159 218.598 210.689 217.705 211.795C216.811 212.902 216.091 213.727 215.545 214.273C215.364 214.5 215.197 214.727 215.045 214.955C214.894 215.182 214.727 215.409 214.545 215.636C213.045 217.318 211.152 218.576 208.864 219.409C206.576 220.227 204.318 220.636 202.091 220.636Z" fill="black"/>
<path d="M321.622 181.512C321.274 178.577 319.865 176.299 317.393 174.677C314.922 173.055 311.89 172.244 308.299 172.244C305.673 172.244 303.375 172.669 301.405 173.518C299.455 174.368 297.93 175.536 296.829 177.023C295.748 178.51 295.207 180.199 295.207 182.091C295.207 183.675 295.584 185.036 296.337 186.175C297.109 187.295 298.094 188.232 299.291 188.985C300.488 189.718 301.743 190.327 303.056 190.809C304.369 191.273 305.576 191.649 306.677 191.939L312.701 193.561C314.246 193.966 315.964 194.526 317.857 195.241C319.768 195.955 321.593 196.93 323.331 198.166C325.088 199.383 326.536 200.947 327.675 202.858C328.815 204.77 329.384 207.116 329.384 209.896C329.384 213.102 328.544 215.998 326.864 218.585C325.204 221.173 322.771 223.229 319.566 224.755C316.38 226.28 312.508 227.043 307.951 227.043C303.703 227.043 300.025 226.357 296.916 224.986C293.827 223.615 291.394 221.704 289.617 219.252C287.86 216.799 286.866 213.951 286.634 210.707H294.049C294.242 212.947 294.995 214.801 296.308 216.268C297.64 217.716 299.32 218.798 301.348 219.512C303.394 220.207 305.596 220.555 307.951 220.555C310.693 220.555 313.155 220.111 315.337 219.223C317.519 218.315 319.247 217.06 320.521 215.457C321.796 213.835 322.433 211.943 322.433 209.78C322.433 207.811 321.883 206.208 320.782 204.973C319.681 203.737 318.233 202.733 316.438 201.96C314.642 201.188 312.701 200.512 310.616 199.933L303.317 197.848C298.683 196.515 295.014 194.613 292.311 192.142C289.608 189.67 288.256 186.436 288.256 182.439C288.256 179.118 289.154 176.222 290.95 173.75C292.765 171.259 295.198 169.328 298.248 167.957C301.319 166.567 304.746 165.872 308.53 165.872C312.354 165.872 315.752 166.557 318.726 167.928C321.699 169.28 324.055 171.134 325.793 173.489C327.55 175.845 328.477 178.519 328.573 181.512H321.622Z" fill="black"/>
<rect x="17.0711" y="204.404" width="272" height="261" transform="rotate(-45 17.0711 204.404)" stroke="black" stroke-width="10"/>
</g>
<defs>
<filter id="filter0_d_3_2" x="-4" y="0" width="421" height="416" filterUnits="userSpaceOnUse" color-interpolation-filters="sRGB">
<feFlood flood-opacity="0" result="BackgroundImageFix"/>
<feColorMatrix in="SourceAlpha" type="matrix" values="0 0 0 0 0 0 0 0 0 0 0 0 0 0 0 0 0 0 127 0" result="hardAlpha"/>
<feOffset dy="4"/>
<feGaussianBlur stdDeviation="2"/>
<feComposite in2="hardAlpha" operator="out"/>
<feColorMatrix type="matrix" values="0 0 0 0 0 0 0 0 0 0 0 0 0 0 0 0 0 0 0.25 0"/>
<feBlend mode="normal" in2="BackgroundImageFix" result="effect1_dropShadow_3_2"/>
<feBlend mode="normal" in="SourceGraphic" in2="effect1_dropShadow_3_2" result="shape"/>
</filter>
</defs>
</svg>
